<svg width="3775" height="2345" viewBox="-60 0 3775 2345" fill="none" xmlns="http://www.w3.org/2000/svg">
<g opacity="0.65" filter="url(#filter0_d_16_2)">
<path d="M632.432 445.009L807.744 343.636C849.146 319.696 900.951 323.364 938.567 352.9L1405.49 719.522C1446.62 751.82 1461.32 807.493 1441.5 855.889L1324.38 1141.85C1295.6 1212.13 1208.54 1236.79 1147.18 1192.05L622.067 809.151C591.862 787.127 574 751.996 574 714.615V546.295C574 504.523 596.27 465.919 632.432 445.009Z" fill="url(#paint0_linear_16_2)"></path>
</g>
<g opacity="0.65" filter="url(#filter1_d_16_2)">
<path d="M3028.57 412.009L2853.26 310.636C2811.85 286.696 2760.05 290.364 2722.43 319.9L2255.51 686.522C2214.38 718.82 2199.68 774.493 2219.5 822.889L2336.62 1108.85C2365.4 1179.13 2452.46 1203.79 2513.82 1159.05L3038.93 776.151C3069.14 754.127 3087 718.996 3087 681.615V513.295C3087 471.523 3064.73 432.919 3028.57 412.009Z" fill="url(#paint1_linear_16_2)"></path>
</g>
<g opacity="0.6" filter="url(#filter2_d_16_2)">
<path d="M47 971.251V1189.15C47 1227.1 65.4067 1262.7 96.3761 1284.63L857.175 1823.48C876.944 1837.48 900.573 1845 924.798 1845H1720.22C1767.04 1845 1805 1807.04 1805 1760.22C1805 1733.36 1792.27 1708.08 1770.68 1692.09L480.624 736.419C443.361 708.815 393.312 705.824 353.027 728.793L106.049 869.611C69.5399 890.427 47 929.224 47 971.251Z" fill="url(#paint2_linear_16_2)"></path>
</g>
<g opacity="0.6" filter="url(#filter3_d_16_2)">
<path d="M3570 971.251V1189.15C3570 1227.1 3551.59 1262.7 3520.62 1284.63L2759.83 1823.48C2740.06 1837.48 2716.43 1845 2692.2 1845H1896.78C1849.96 1845 1812 1807.04 1812 1760.22C1812 1733.36 1824.73 1708.08 1846.32 1692.09L3136.38 736.419C3173.64 708.815 3223.69 705.824 3263.97 728.793L3510.95 869.611C3547.46 890.427 3570 929.224 3570 971.251Z" fill="url(#paint3_linear_16_2)"></path>
</g>
<g opacity="0.85" filter="url(#filter4_d_16_2)">
<path d="M1736.87 117.631C1773.39 96.243 1818.61 96.243 1855.13 117.632L2068.09 242.356C2103.93 263.35 2125.96 301.775 2125.96 343.315V595.685C2125.96 637.225 2103.93 675.65 2068.09 696.644L1855.13 821.369C1818.61 842.757 1773.39 842.757 1736.87 821.368L1523.91 696.644C1488.07 675.65 1466.04 637.225 1466.04 595.685V343.315C1466.04 301.775 1488.07 263.35 1523.91 242.356L1736.87 117.631Z" fill="url(#paint4_linear_16_2)"></path>
</g>
<g filter="url(#filter5_d_16_2)">
<path d="M1355.83 793.688C1392.37 772.267 1437.63 772.267 1474.17 793.688L1694.92 923.099C1730.74 944.098 1752.75 982.511 1752.75 1024.03V1285.97C1752.75 1327.49 1730.74 1365.9 1694.92 1386.9L1474.17 1516.31C1437.63 1537.73 1392.37 1537.73 1355.83 1516.31L1135.08 1386.9C1099.26 1365.9 1077.25 1327.49 1077.25 1285.97V1024.03C1077.25 982.511 1099.26 944.098 1135.08 923.099L1355.83 793.688Z" fill="url(#paint5_linear_16_2)"></path>
</g>
<g filter="url(#filter6_d_16_2)">
<path d="M2126.83 793.688C2163.37 772.267 2208.63 772.267 2245.17 793.688L2465.92 923.099C2501.74 944.098 2523.75 982.511 2523.75 1024.03V1285.97C2523.75 1327.49 2501.74 1365.9 2465.92 1386.9L2245.17 1516.31C2208.63 1537.73 2163.37 1537.73 2126.83 1516.31L1906.08 1386.9C1870.26 1365.9 1848.25 1327.49 1848.25 1285.97V1024.03C1848.25 982.511 1870.26 944.098 1906.08 923.099L2126.83 793.688Z" fill="url(#paint6_linear_16_2)"></path>
</g>
<g filter="url(#filter7_d_16_2)">
<path d="M1745.31 1393.72C1781.86 1372.28 1827.14 1372.28 1863.69 1393.72L2128.18 1548.84C2163.99 1569.85 2185.98 1608.25 2185.98 1649.77V1963.23C2185.98 2004.75 2163.99 2043.15 2128.18 2064.16L1863.69 2219.28C1827.14 2240.72 1781.86 2240.72 1745.31 2219.28L1480.82 2064.16C1445.01 2043.15 1423.02 2004.75 1423.02 1963.23V1649.77C1423.02 1608.25 1445.01 1569.85 1480.82 1548.84L1745.31 1393.72Z" fill="url(#paint7_linear_16_2)"></path>
</g>
<defs>
<filter id="filter0_d_16_2" x="509" y="266.922" width="1006.24" height="1016.63" filterUnits="userSpaceOnUse" color-interpolation-filters="sRGB">
<feFlood flood-opacity="0" result="BackgroundImageFix"></feFlood>
<feColorMatrix in="SourceAlpha" type="matrix" values="0 0 0 0 0 0 0 0 0 0 0 0 0 0 0 0 0 0 127 0" result="hardAlpha"></feColorMatrix>
<feOffset dy="4"></feOffset>
<feGaussianBlur stdDeviation="32.5"></feGaussianBlur>
<feComposite in2="hardAlpha" operator="out"></feComposite>
<feColorMatrix type="matrix" values="0 0 0 0 0.164706 0 0 0 0 0 0 0 0 0 0.498039 0 0 0 1 0"></feColorMatrix>
<feBlend mode="normal" in2="BackgroundImageFix" result="effect1_dropShadow_16_2"></feBlend>
<feBlend mode="normal" in="SourceGraphic" in2="effect1_dropShadow_16_2" result="shape"></feBlend>
</filter>
<filter id="filter1_d_16_2" x="2145.76" y="233.922" width="1006.24" height="1016.63" filterUnits="userSpaceOnUse" color-interpolation-filters="sRGB">
<feFlood flood-opacity="0" result="BackgroundImageFix"></feFlood>
<feColorMatrix in="SourceAlpha" type="matrix" values="0 0 0 0 0 0 0 0 0 0 0 0 0 0 0 0 0 0 127 0" result="hardAlpha"></feColorMatrix>
<feOffset dy="4"></feOffset>
<feGaussianBlur stdDeviation="32.5"></feGaussianBlur>
<feComposite in2="hardAlpha" operator="out"></feComposite>
<feColorMatrix type="matrix" values="0 0 0 0 0.164706 0 0 0 0 0 0 0 0 0 0.498039 0 0 0 1 0"></feColorMatrix>
<feBlend mode="normal" in2="BackgroundImageFix" result="effect1_dropShadow_16_2"></feBlend>
<feBlend mode="normal" in="SourceGraphic" in2="effect1_dropShadow_16_2" result="shape"></feBlend>
</filter>
<filter id="filter2_d_16_2" x="-18" y="652.433" width="1888" height="1261.57" filterUnits="userSpaceOnUse" color-interpolation-filters="sRGB">
<feFlood flood-opacity="0" result="BackgroundImageFix"></feFlood>
<feColorMatrix in="SourceAlpha" type="matrix" values="0 0 0 0 0 0 0 0 0 0 0 0 0 0 0 0 0 0 127 0" result="hardAlpha"></feColorMatrix>
<feOffset dy="4"></feOffset>
<feGaussianBlur stdDeviation="32.5"></feGaussianBlur>
<feComposite in2="hardAlpha" operator="out"></feComposite>
<feColorMatrix type="matrix" values="0 0 0 0 0.164706 0 0 0 0 0 0 0 0 0 0.498039 0 0 0 1 0"></feColorMatrix>
<feBlend mode="normal" in2="BackgroundImageFix" result="effect1_dropShadow_16_2"></feBlend>
<feBlend mode="normal" in="SourceGraphic" in2="effect1_dropShadow_16_2" result="shape"></feBlend>
</filter>
<filter id="filter3_d_16_2" x="1747" y="652.433" width="1888" height="1261.57" filterUnits="userSpaceOnUse" color-interpolation-filters="sRGB">
<feFlood flood-opacity="0" result="BackgroundImageFix"></feFlood>
<feColorMatrix in="SourceAlpha" type="matrix" values="0 0 0 0 0 0 0 0 0 0 0 0 0 0 0 0 0 0 127 0" result="hardAlpha"></feColorMatrix>
<feOffset dy="4"></feOffset>
<feGaussianBlur stdDeviation="32.5"></feGaussianBlur>
<feComposite in2="hardAlpha" operator="out"></feComposite>
<feColorMatrix type="matrix" values="0 0 0 0 0.164706 0 0 0 0 0 0 0 0 0 0.498039 0 0 0 1 0"></feColorMatrix>
<feBlend mode="normal" in2="BackgroundImageFix" result="effect1_dropShadow_16_2"></feBlend>
<feBlend mode="normal" in="SourceGraphic" in2="effect1_dropShadow_16_2" result="shape"></feBlend>
</filter>
<filter id="filter4_d_16_2" x="1401.04" y="40.5901" width="789.911" height="865.82" filterUnits="userSpaceOnUse" color-interpolation-filters="sRGB">
<feFlood flood-opacity="0" result="BackgroundImageFix"></feFlood>
<feColorMatrix in="SourceAlpha" type="matrix" values="0 0 0 0 0 0 0 0 0 0 0 0 0 0 0 0 0 0 127 0" result="hardAlpha"></feColorMatrix>
<feOffset dy="4"></feOffset>
<feGaussianBlur stdDeviation="32.5"></feGaussianBlur>
<feComposite in2="hardAlpha" operator="out"></feComposite>
<feColorMatrix type="matrix" values="0 0 0 0 0.164706 0 0 0 0 0 0 0 0 0 0.498039 0 0 0 1 0"></feColorMatrix>
<feBlend mode="normal" in2="BackgroundImageFix" result="effect1_dropShadow_16_2"></feBlend>
<feBlend mode="normal" in="SourceGraphic" in2="effect1_dropShadow_16_2" result="shape"></feBlend>
</filter>
<filter id="filter5_d_16_2" x="1012.25" y="716.623" width="805.5" height="884.755" filterUnits="userSpaceOnUse" color-interpolation-filters="sRGB">
<feFlood flood-opacity="0" result="BackgroundImageFix"></feFlood>
<feColorMatrix in="SourceAlpha" type="matrix" values="0 0 0 0 0 0 0 0 0 0 0 0 0 0 0 0 0 0 127 0" result="hardAlpha"></feColorMatrix>
<feOffset dy="4"></feOffset>
<feGaussianBlur stdDeviation="32.5"></feGaussianBlur>
<feComposite in2="hardAlpha" operator="out"></feComposite>
<feColorMatrix type="matrix" values="0 0 0 0 0.164706 0 0 0 0 0 0 0 0 0 0.498039 0 0 0 1 0"></feColorMatrix>
<feBlend mode="normal" in2="BackgroundImageFix" result="effect1_dropShadow_16_2"></feBlend>
<feBlend mode="normal" in="SourceGraphic" in2="effect1_dropShadow_16_2" result="shape"></feBlend>
</filter>
<filter id="filter6_d_16_2" x="1783.25" y="716.623" width="805.5" height="884.755" filterUnits="userSpaceOnUse" color-interpolation-filters="sRGB">
<feFlood flood-opacity="0" result="BackgroundImageFix"></feFlood>
<feColorMatrix in="SourceAlpha" type="matrix" values="0 0 0 0 0 0 0 0 0 0 0 0 0 0 0 0 0 0 127 0" result="hardAlpha"></feColorMatrix>
<feOffset dy="4"></feOffset>
<feGaussianBlur stdDeviation="32.5"></feGaussianBlur>
<feComposite in2="hardAlpha" operator="out"></feComposite>
<feColorMatrix type="matrix" values="0 0 0 0 0.166606 0 0 0 0 0 0 0 0 0 0.497596 0 0 0 1 0"></feColorMatrix>
<feBlend mode="normal" in2="BackgroundImageFix" result="effect1_dropShadow_16_2"></feBlend>
<feBlend mode="normal" in="SourceGraphic" in2="effect1_dropShadow_16_2" result="shape"></feBlend>
</filter>
<filter id="filter7_d_16_2" x="1357.02" y="1315.64" width="894.969" height="989.72" filterUnits="userSpaceOnUse" color-interpolation-filters="sRGB">
<feFlood flood-opacity="0" result="BackgroundImageFix"></feFlood>
<feColorMatrix in="SourceAlpha" type="matrix" values="0 0 0 0 0 0 0 0 0 0 0 0 0 0 0 0 0 0 127 0" result="hardAlpha"></feColorMatrix>
<feMorphology radius="1" operator="dilate" in="SourceAlpha" result="effect1_dropShadow_16_2"></feMorphology>
<feOffset dy="4"></feOffset>
<feGaussianBlur stdDeviation="32.5"></feGaussianBlur>
<feComposite in2="hardAlpha" operator="out"></feComposite>
<feColorMatrix type="matrix" values="0 0 0 0 0.164706 0 0 0 0 0 0 0 0 0 0.498039 0 0 0 1 0"></feColorMatrix>
<feBlend mode="normal" in2="BackgroundImageFix" result="effect1_dropShadow_16_2"></feBlend>
<feBlend mode="normal" in="SourceGraphic" in2="effect1_dropShadow_16_2" result="shape"></feBlend>
</filter>
<linearGradient id="paint0_linear_16_2" x1="1024.5" y1="304" x2="1024.5" y2="1280" gradientUnits="userSpaceOnUse">
<stop stop-color="#CCABFB"></stop>
<stop offset="1" stop-color="#F5ECFF"></stop>
</linearGradient>
<linearGradient id="paint1_linear_16_2" x1="2636.5" y1="271" x2="2636.5" y2="1247" gradientUnits="userSpaceOnUse">
<stop stop-color="#CCABFB"></stop>
<stop offset="1" stop-color="#F5ECFF"></stop>
</linearGradient>
<linearGradient id="paint2_linear_16_2" x1="926" y1="691" x2="926" y2="1845" gradientUnits="userSpaceOnUse">
<stop stop-color="#C193FF"></stop>
<stop offset="1" stop-color="#F2EAFD"></stop>
</linearGradient>
<linearGradient id="paint3_linear_16_2" x1="2691" y1="691" x2="2691" y2="1845" gradientUnits="userSpaceOnUse">
<stop stop-color="#C193FF"></stop>
<stop offset="1" stop-color="#F2EAFD"></stop>
</linearGradient>
<linearGradient id="paint4_linear_16_2" x1="1796" y1="83" x2="1796" y2="856" gradientUnits="userSpaceOnUse">
<stop stop-color="#F0E2FF"></stop>
<stop offset="1" stop-color="#CEADFF"></stop>
</linearGradient>
<linearGradient id="paint5_linear_16_2" x1="1415" y1="759" x2="1415" y2="1551" gradientUnits="userSpaceOnUse">
<stop stop-color="#6A1FFF"></stop>
<stop offset="1" stop-color="#B16CFF"></stop>
</linearGradient>
<linearGradient id="paint6_linear_16_2" x1="2186" y1="1551" x2="2186" y2="759" gradientUnits="userSpaceOnUse">
<stop stop-color="#B16CFF"></stop>
<stop offset="1" stop-color="#6A1FFF"></stop>
</linearGradient>
<linearGradient id="paint7_linear_16_2" x1="1804.5" y1="1359" x2="1804.5" y2="2254" gradientUnits="userSpaceOnUse">
<stop stop-color="#B16CFF"></stop>
<stop offset="1" stop-color="#6A1FFF"></stop>
</linearGradient>
</defs>
</svg>